<svg width="80" height="80" viewBox="0 0 80 80" xmlns="http://www.w3.org/2000/svg">
  <!-- Row 1 -->
  <rect x="20" y="10" width="10" height="10" fill="#a52f01"/>
  <rect x="30" y="10" width="10" height="10" fill="#a52f01"/>
  <rect x="40" y="10" width="10" height="10" fill="#a52f01"/>
  <!-- Row 2 -->
  <rect x="10" y="20" width="10" height="10" fill="#a52f01"/>
  <rect x="20" y="20" width="10" height="10" fill="#a52f01"/>
  <rect x="30" y="20" width="10" height="10" fill="#a52f01"/>
  <rect x="40" y="20" width="10" height="10" fill="#a52f01"/>
  <rect x="50" y="20" width="10" height="10" fill="#a52f01"/>
  <!-- Row 3 -->
  <rect x="20" y="30" width="10" height="10" fill="#228be6"/>
  <rect x="30" y="30" width="10" height="10" fill="#f06595"/>
  <rect x="40" y="30" width="10" height="10" fill="#228be6"/>
  <!-- Row 4 -->
  <rect x="20" y="40" width="10" height="10" fill="#f06595"/>
  <rect x="30" y="40" width="10" height="10" fill="#f06595"/>
  <rect x="40" y="40" width="10" height="10" fill="#f06595"/>
  <rect x="60" y="40" width="10" height="10" fill="#f06595"/>
  <!-- Row 5 -->
  <rect x="10" y="50" width="10" height="10" fill="#40c057"/>
  <rect x="20" y="50" width="10" height="10" fill="#40c057"/>
  <rect x="30" y="50" width="10" height="10" fill="#40c057"/>
  <rect x="40" y="50" width="10" height="10" fill="#40c057"/>
  <rect x="50" y="50" width="10" height="10" fill="#40c057"/>
  <rect x="60" y="50" width="10" height="10" fill="#40c057"/>
  <!-- Row 6 -->
  <rect x="10" y="60" width="10" height="10" fill="#f06595"/>
  <rect x="30" y="60" width="10" height="10" fill="#40c057"/>
  <rect x="40" y="60" width="10" height="10" fill="#40c057"/>
  <!-- Row 7 -->
  <rect x="30" y="70" width="10" height="10" fill="#40c057"/>
  <rect x="40" y="70" width="10" height="10" fill="#40c057"/>
</svg>
